Coordinates
version=1
nRows=11
nColumns=40
inDegrees=yes

Units are S.I. units (second, meters, Newtons, ...)
If the header above contains a line with 'inDegrees', this indicates whether rotational values are in degrees (yes) or radians (no).

endheader
time	pelvis_tilt	pelvis_list	pelvis_rotation	pelvis_tx	pelvis_ty	pelvis_tz	hip_flexion_r	hip_adduction_r	hip_rotation_r	knee_angle_r	knee_angle_r_beta	ankle_angle_r	subtalar_angle_r	mtp_angle_r	hip_flexion_l	hip_adduction_l	hip_rotation_l	knee_angle_l	knee_angle_l_beta	ankle_angle_l	subtalar_angle_l	mtp_angle_l	lumbar_extension	lumbar_bending	lumbar_rotation	arm_flex_r	arm_add_r	arm_rot_r	elbow_flex_r	pro_sup_r	wrist_flex_r	wrist_dev_r	arm_flex_l	arm_add_l	arm_rot_l	elbow_flex_l	pro_sup_l	wrist_flex_l	wrist_dev_l
      5.26000000	    -12.07619022	      0.34801070	     -0.68239626	     -0.25963224	      1.28772967	     -0.88703144	     12.98428033	     -1.42497548	    -23.84658939	      2.81011398	      0.04904574	    -36.47400231	      0.00000000	      0.00000000	     13.94597044	     -8.20352798	    -22.52843208	      6.19589591	      0.10813878	    -34.13881979	      0.00000000	      0.00000000	     -8.79476401	    -16.29846232	    -49.07761930	     31.06023602	    -20.25111260	     89.63164099	     73.51544128	      3.16354779	      0.00000000	      0.00000000	    -70.48808879	     -1.22843791	    -26.30485361	    110.04619189	     88.01701211	      0.00000000	      0.00000000
      5.26500000	    -12.02795564	      0.25484024	     -0.64703915	     -0.26001635	      1.29455957	     -0.88705552	     12.92028609	     -1.29148496	    -25.31907361	      2.79013662	      0.04869707	    -36.12805999	      0.00000000	      0.00000000	     13.92562250	     -8.26783295	    -23.70444123	      6.02599415	      0.10517344	    -33.35974343	      0.00000000	      0.00000000	     -8.69094362	    -16.17587453	    -48.93397830	     31.04957949	    -20.53084277	     89.63297644	     73.71336646	      3.15421218	      0.00000000	      0.00000000	    -70.47372601	     -1.19407331	    -26.28129849	    110.06481402	     88.01612267	      0.00000000	      0.00000000
      5.27000000	    -11.79910572	      0.17054408	     -0.61410420	     -0.26014044	      1.30134564	     -0.88699829	     12.76384397	     -1.19930834	    -27.02889858	      3.06443173	      0.05348442	    -35.88002697	      0.00000000	      0.00000000	     13.84615705	     -8.40342950	    -25.14974946	      6.25896568	      0.10923956	    -32.49920095	      0.00000000	      0.00000000	     -8.76288065	    -16.07512180	    -48.71625143	     31.02067830	    -20.87967585	     89.62485719	     73.97787200	      3.12112457	      0.00000000	      0.00000000	    -70.46291226	     -1.28348197	    -26.18220714	    110.09254498	     88.01520153	      0.00000000	      0.00000000
      5.27500000	    -11.72625669	      0.13427570	     -0.65213914	     -0.26050486	      1.30774954	     -0.88689179	     12.74062510	     -1.13481035	    -28.18714947	      3.23319043	      0.05642982	    -35.70962200	      0.00000000	      0.00000000	     13.86160937	     -8.47017344	    -26.43177005	      6.33814712	      0.11062154	    -31.96158209	      0.00000000	      0.00000000	     -8.64433412	    -16.05228708	    -48.43701855	     30.94129426	    -21.17527795	     89.61759647	     74.21731177	      3.10142803	      0.00000000	      0.00000000	    -70.44152087	     -1.30252407	    -26.14698739	    110.13513931	     88.01579975	      0.00000000	      0.00000000
      5.28000000	    -11.68356858	      0.07690150	     -0.75034895	     -0.26114882	      1.31381042	     -0.88669443	     12.75410187	     -1.01644707	    -28.85121977	      3.36977876	      0.05881373	    -35.60948950	      0.00000000	      0.00000000	     13.89675362	     -8.55483801	    -27.27126683	      6.30168530	      0.10998516	    -31.69974437	      0.00000000	      0.00000000	     -8.54082212	    -15.98087305	    -48.13867773	     30.91699626	    -21.46294119	     89.61657851	     74.46212854	      3.10060354	      0.00000000	      0.00000000	    -70.42274887	     -1.26053421	    -26.18152645	    110.25871752	     88.01496661	      0.00000000	      0.00000000
      5.28500000	    -11.58047045	      0.06633622	     -0.71772941	     -0.26190839	      1.31977705	     -0.88665783	     12.73813851	     -1.01005544	    -29.48339033	      3.61526516	      0.06309828	    -35.58053000	      0.00000000	      0.00000000	     14.00440071	     -8.60315089	    -27.95496281	      6.50406558	      0.11351736	    -31.72620403	      0.00000000	      0.00000000	     -8.55516254	    -15.97249888	    -47.97281405	     30.89144178	    -21.68843109	     89.60769387	     74.70158662	      3.09026700	      0.00000000	      0.00000000	    -70.43462360	     -1.34163514	    -26.15101566	    110.38193865	     88.02010569	      0.00000000	      0.00000000
      5.29000000	    -11.52692291	      0.06957494	     -0.70466146	     -0.26258827	      1.32537028	     -0.88651798	     12.69348197	     -0.95957562	    -29.50836348	      3.66393716	      0.06394777	    -35.60797472	      0.00000000	      0.00000000	     14.06524225	     -8.59974856	    -27.98216252	      6.53109590	      0.11398913	    -31.75044440	      0.00000000	      0.00000000	     -8.53752474	    -16.01790943	    -47.85936089	     30.77796583	    -21.79535529	     89.59065569	     74.70946215	      3.08717711	      0.00000000	      0.00000000	    -70.45429256	     -1.28310049	    -26.15247109	    110.39913259	     88.02103367	      0.00000000	      0.00000000
      5.29500000	    -11.44655514	      0.08864634	     -0.80536885	     -0.26328849	      1.33070549	     -0.88625395	     12.73919264	     -0.96886434	    -29.56367492	      3.93847647	      0.06873938	    -35.81732156	      0.00000000	      0.00000000	     14.18499805	     -8.65959186	    -28.10517568	      6.76379264	      0.11805045	    -32.12087185	      0.00000000	      0.00000000	     -8.48127224	    -16.07028119	    -47.52802100	     30.76397222	    -22.04079785	     89.59363023	     74.99264370	      3.08667683	      0.00000000	      0.00000000	    -70.48537210	     -1.32895396	    -26.12820193	    110.54630593	     88.02478920	      0.00000000	      0.00000000
      5.30000000	    -11.39869193	      0.09966111	     -0.83141818	     -0.26405850	      1.33574729	     -0.88602764	     12.75419221	     -0.93326483	    -29.46205787	      4.03685451	      0.07045640	    -35.94715655	      0.00000000	      0.00000000	     14.33188324	     -8.68334564	    -27.88112858	      6.92406825	      0.12084779	    -32.42088257	      0.00000000	      0.00000000	     -8.43642482	    -16.13181541	    -47.33817450	     30.71553968	    -22.16609713	     89.59775903	     75.06501094	      3.07900292	      0.00000000	      0.00000000	    -70.52880616	     -1.34950430	    -26.12220167	    110.62271433	     88.02714335	      0.00000000	      0.00000000
      5.30500000	    -11.35296950	      0.12870584	     -0.84166723	     -0.26474848	      1.34055482	     -0.88577376	     12.77146215	     -0.93026252	    -28.99841684	      4.13825378	      0.07222615	    -36.13994817	      0.00000000	      0.00000000	     14.48437319	     -8.69141519	    -27.37009607	      7.07128368	      0.12341718	    -32.96211903	      0.00000000	      0.00000000	     -8.40955769	    -16.20245821	    -47.16078536	     30.61784154	    -22.27671834	     89.58029596	     75.18540563	      3.06275356	      0.00000000	      0.00000000	    -70.55561854	     -1.37423848	    -26.13058550	    110.74970990	     88.03051794	      0.00000000	      0.00000000
      5.31000000	    -11.32132531	      0.18039858	     -0.92337637	     -0.26552012	      1.34502617	     -0.88546399	     12.80927012	     -0.91660734	    -28.59859955	      4.18443431	      0.07303216	    -36.27999760	      0.00000000	      0.00000000	     14.64209415	     -8.67002541	    -26.80460337	      7.19952550	      0.12565542	    -33.33138970	      0.00000000	      0.00000000	     -8.36789737	    -16.30328779	    -46.95465666	     30.59618303	    -22.33128088	     89.59472452	     75.17656109	      3.04756749	      0.00000000	      0.00000000	    -70.57108863	     -1.35646560	    -26.14530568	    110.79929051	     88.03325875	      0.00000000	      0.00000000
